<?xml version="1.0" standalone="no"?>
<!DOCTYPE svg PUBLIC "-//W3C//DTD SVG 20010904//EN"
 "http://www.w3.org/TR/2001/REC-SVG-20010904/DTD/svg10.dtd">
<svg version="1.0" xmlns="http://www.w3.org/2000/svg"
 width="920.000000pt" height="920.000000pt" viewBox="0 0 920.000000 920.000000"
 preserveAspectRatio="xMidYMid meet">

<g transform="translate(0.000000,920.000000) scale(0.100000,-0.100000)"
fill="#000000" stroke="none">
<path d="M4185 8892 c-72 -25 -137 -65 -185 -115 -24 -24 -140 -196 -259 -383
l-217 -339 -880 -5 -879 -5 -58 -23 c-64 -26 -143 -84 -181 -134 -14 -19 -38
-61 -53 -93 l-28 -60 -3 -524 c-2 -460 -1 -530 14 -580 22 -77 55 -130 119
-190 66 -62 136 -96 230 -111 38 -6 71 -13 74 -16 5 -4 26 -197 121 -1114 33
-322 64 -623 70 -670 5 -47 21 -197 35 -335 14 -137 39 -378 56 -535 16 -157
43 -413 59 -570 16 -157 37 -348 45 -425 8 -77 40 -378 70 -670 31 -291 62
-557 71 -590 33 -131 119 -273 221 -365 66 -58 206 -131 303 -157 61 -17 186
-18 1960 -18 l1895 0 80 23 c200 58 361 193 450 377 51 105 69 186 90 385 21
212 202 1951 220 2115 8 77 33 313 55 525 41 392 104 1002 140 1345 19 179 33
313 61 571 l11 112 74 12 c189 30 325 157 363 338 14 68 15 957 1 1032 -31
163 -152 293 -315 336 -40 11 -223 14 -906 14 l-856 0 -84 128 c-288 440 -393
593 -430 627 -23 20 -71 51 -108 69 l-66 31 -665 2 c-611 3 -669 1 -715 -15z
m1355 -296 c24 -17 85 -103 199 -281 90 -141 161 -258 159 -260 -3 -3 -460 -4
-1016 -3 l-1011 3 149 235 c180 282 183 286 223 311 31 18 56 19 647 19 l615
0 35 -24z m2446 -855 c64 -39 64 -40 64 -553 0 -510 1 -506 -63 -552 l-28 -21
-3052 -3 c-2806 -2 -3055 -1 -3095 14 -28 10 -51 28 -63 48 -18 29 -19 56 -19
511 0 364 3 486 13 505 7 13 28 35 46 47 l34 23 3066 0 c2982 0 3067 -1 3097
-19z m-386 -1438 c0 -16 -113 -1095 -220 -2108 -22 -203 -93 -887 -159 -1520
-73 -694 -127 -1172 -137 -1205 -24 -82 -51 -128 -106 -187 -56 -59 -141 -106
-221 -123 -36 -7 -604 -10 -1897 -8 l-1845 3 -58 24 c-70 28 -148 89 -199 156
-66 87 -76 128 -113 484 -29 275 -173 1642 -205 1951 -139 1326 -261 2483
-265 2513 l-5 37 2715 0 c2566 0 2715 -1 2715 -17z"/>
<path d="M2265 7470 c-42 -9 -70 -29 -89 -61 -13 -22 -16 -60 -16 -221 0 -176
2 -196 20 -226 50 -81 190 -81 240 0 18 30 20 50 20 226 0 162 -3 199 -16 222
-29 48 -97 74 -159 60z"/>
<path d="M2965 7465 c-83 -30 -98 -78 -93 -306 3 -151 5 -170 24 -196 60 -82
194 -82 244 -1 19 31 20 46 18 235 l-3 202 -29 30 c-26 27 -80 52 -111 51 -5
-1 -28 -7 -50 -15z"/>
<path d="M3687 7466 c-51 -19 -63 -31 -82 -80 -25 -64 -18 -379 8 -419 57 -87
196 -88 248 -3 17 27 19 53 19 221 0 171 -2 193 -20 222 -36 59 -105 83 -173
59z"/>
<path d="M4406 7465 c-85 -30 -96 -61 -96 -285 0 -186 8 -217 69 -257 66 -44
166 -21 203 48 15 29 18 58 18 214 0 152 -3 185 -18 214 -33 65 -103 91 -176
66z"/>
<path d="M5285 7471 c-100 -24 -110 -51 -110 -281 0 -145 3 -191 15 -214 48
-92 196 -101 250 -14 19 31 20 46 18 236 l-3 204 -37 34 c-21 19 -46 34 -57
34 -11 0 -25 2 -33 4 -7 2 -26 1 -43 -3z"/>
<path d="M5987 7466 c-51 -19 -63 -31 -82 -80 -14 -36 -16 -75 -13 -219 3
-159 5 -178 24 -204 60 -82 195 -82 245 1 17 27 19 53 19 221 0 171 -2 193
-20 222 -36 60 -105 84 -173 59z"/>
<path d="M6707 7465 c-86 -30 -97 -61 -97 -285 0 -186 8 -217 69 -257 66 -44
166 -21 203 48 16 29 18 59 18 220 0 177 -1 188 -23 220 -37 55 -105 77 -170
54z"/>
<path d="M7426 7465 c-86 -30 -96 -58 -96 -275 0 -184 6 -216 53 -259 36 -33
111 -40 162 -15 64 30 75 68 75 274 0 147 -3 180 -18 209 -32 65 -103 91 -176
66z"/>
<path d="M4825 5591 c-23 -10 -50 -31 -60 -47 -20 -28 -20 -56 -20 -1519 l0
-1490 23 -32 c29 -40 98 -68 147 -59 20 4 53 22 73 41 l37 33 0 1505 0 1505
-25 27 c-28 31 -78 55 -112 55 -13 0 -41 -9 -63 -19z"/>
<path d="M3530 5577 c-13 -7 -35 -28 -48 -47 -21 -31 -22 -42 -17 -115 3 -44
26 -489 50 -990 45 -921 67 -1350 85 -1705 12 -217 16 -230 83 -263 27 -14 48
-17 77 -12 47 8 105 57 116 99 9 36 -133 2910 -146 2958 -16 56 -60 88 -123
88 -29 0 -63 -6 -77 -13z"/>
<path d="M6120 5572 c-60 -29 -67 -59 -79 -317 -6 -126 -16 -315 -21 -420 -13
-244 -75 -1484 -97 -1946 -16 -336 -16 -358 0 -383 23 -34 57 -56 100 -63 47
-7 122 28 142 67 12 23 30 322 85 1427 39 769 71 1434 72 1478 1 62 -2 88 -17
111 -36 62 -114 82 -185 46z"/>
<path d="M3257 1716 c-20 -8 -45 -20 -54 -27 -21 -18 -43 -71 -43 -103 0 -46
31 -105 65 -126 32 -20 46 -20 1086 -20 1028 0 1055 1 1086 20 47 28 66 72 61
137 -6 65 -43 109 -104 123 -22 6 -479 9 -1049 9 -819 0 -1017 -2 -1048 -13z"/>
<path d="M5852 1720 c-113 -27 -139 -199 -40 -260 31 -19 50 -20 368 -20 315
0 337 1 367 20 47 28 66 72 61 137 -6 65 -43 109 -104 123 -47 11 -605 11
-652 0z"/>
</g>
</svg>
